<svg width="20" height="20" viewBox="0 0 20 20" fill="none" xmlns="http://www.w3.org/2000/svg">
<g clip-path="url(#clip0)">
<path fill-rule="evenodd" clip-rule="evenodd" d="M15.712 7.07656C15.8234 7.29411 15.7873 7.55802 15.6216 7.73771L7.61581 16.4222C7.44963 16.6025 7.18847 16.6596 6.96221 16.5651C6.73596 16.4707 6.5929 16.2449 6.6042 15.9999L6.80557 11.6349L3.14718 9.24536C2.94191 9.11129 2.84238 8.86317 2.89811 8.62441C2.95383 8.38565 3.1529 8.20721 3.39631 8.17785L15.1229 6.76319C15.3655 6.73392 15.6007 6.859 15.712 7.07656ZM5.12589 9.14432L7.72264 10.8404C7.89557 10.9534 7.99587 11.1494 7.98635 11.3557L7.84342 14.454L13.6907 8.11109L5.12589 9.14432Z" fill="#515151" fill-opacity="0.7"/>
<path d="M14.2231 7.2769L4.17178 8.48946L7.32946 11.3668L7.11217 12.0397L7.58879 15.1658L13.5713 9.29558L14.2231 7.2769Z" fill="#515151" fill-opacity="0.7"/>
</g>
<defs>
<clipPath id="clip0">
<rect width="14" height="14" fill="white" transform="translate(13.0421 0.579498) rotate(62.8964)"/>
</clipPath>
</defs>
</svg>
